<svg width="88" height="88" viewBox="0 0 88 88" fill="none" xmlns="http://www.w3.org/2000/svg">
<g clip-path="url(#clip0_1_34)">
<rect width="88" height="88" fill="white"/>
<path opacity="0.1" d="M44 88C68.3005 88 88 68.3005 88 44C88 19.6995 68.3005 0 44 0C19.6995 0 0 19.6995 0 44C0 68.3005 19.6995 88 44 88Z" fill="#8FA632"/>
<g style="mix-blend-mode:darken" clip-path="url(#clip1_1_34)">
<rect width="44.95" height="44.46" transform="translate(22 22)" fill="white"/>
<path d="M25.9382 28.0624C25.5161 27.1993 25.8811 26.1612 26.7537 25.7438C27.0385 25.6076 27.3418 25.5556 27.6363 25.5755C27.9141 24.9647 28.4018 24.4433 29.0591 24.1288C30.5446 23.4179 32.3316 24.0328 33.0504 25.5022C33.2241 25.8573 33.3189 26.2299 33.3426 26.6007C34.0057 26.5788 34.6511 26.9362 34.9588 27.5649C35.3749 28.4156 35.0151 29.4389 34.1549 29.8505C33.3738 30.2243 32.4503 29.9635 31.9753 29.2755C31.8755 29.3388 31.7714 29.3974 31.6619 29.4499C30.4875 30.0119 29.1251 29.7447 28.2506 28.8822C27.3845 29.2764 26.3553 28.9149 25.9382 28.0624Z" fill="url(#paint0_linear_1_34)"/>
<path d="M26.3795 24.9015C27.1896 24.9015 27.8462 24.252 27.8462 23.4507C27.8462 22.6495 27.1896 22 26.3795 22C25.5695 22 24.9128 22.6495 24.9128 23.4507C24.9128 24.252 25.5695 24.9015 26.3795 24.9015Z" fill="url(#paint1_linear_1_34)"/>
<path d="M35.0929 36.601H31.5554C31.0548 36.601 30.649 36.1995 30.649 35.7044V30.1233C30.649 29.6282 31.0548 29.2268 31.5554 29.2268H35.0929C35.5936 29.2268 35.9993 29.6282 35.9993 30.1233V35.7044C35.9994 36.1995 35.5937 36.601 35.0929 36.601Z" fill="url(#paint2_linear_1_34)"/>
<path d="M33.9722 52.5144H23.4085V65.9233H33.9722V52.5144Z" fill="url(#paint3_linear_1_34)"/>
<path d="M34.4123 55.3874H23.4322C22.9823 55.3874 22.6602 54.9577 22.7908 54.5318L23.8804 50.9818C23.9661 50.7024 24.2266 50.5115 24.5218 50.5115H34.4124L34.4123 55.3874Z" fill="url(#paint4_linear_1_34)"/>
<path d="M65.4871 52.5144H54.9235V65.9233H65.4871V52.5144Z" fill="url(#paint5_linear_1_34)"/>
<path d="M65.487 62.4102L58.3896 55.39H54.9235V65.923H65.487V62.4102Z" fill="url(#paint6_linear_1_34)"/>
<path d="M54.4833 55.3874H65.4634C65.9133 55.3874 66.2354 54.9577 66.1048 54.5318L65.0153 50.9818C64.9294 50.7024 64.669 50.5115 64.3738 50.5115H54.4833V55.3874Z" fill="url(#paint7_linear_1_34)"/>
<path d="M58.3953 38.1803V65.9227H30.5038V38.1803L44.4477 24.6581L58.3953 38.1803Z" fill="url(#paint8_linear_1_34)"/>
<path d="M30.5038 38.1803V39.7697L56.945 65.9227H58.3953V38.1803L44.4477 24.6581L30.5038 38.1803Z" fill="url(#paint9_linear_1_34)"/>
<path d="M58.3953 46.5647V65.923H49.5896L30.5038 47.0452V46.5647H58.3953Z" fill="url(#paint10_linear_1_34)"/>
<path d="M54.0857 65.9229H40.4448L32.9463 58.5063C32.6162 58.2946 32.3965 57.9272 32.3965 57.5106V51.5413C32.3965 50.8873 32.9348 50.3549 33.596 50.3549H37.947C38.3692 50.3549 38.7406 50.5723 38.9545 50.8987L38.922 50.9243L54.0857 65.9229Z" fill="url(#paint11_linear_1_34)"/>
<path d="M37.947 58.0015H33.5964C33.322 58.0015 33.0997 57.7816 33.0997 57.5102V51.5418C33.0997 51.2704 33.3221 51.0505 33.5964 51.0505H37.947C38.2214 51.0505 38.4437 51.2705 38.4437 51.5418V57.5102C38.4438 57.7816 38.2214 58.0015 37.947 58.0015Z" fill="#503837"/>
<path d="M37.947 58.6971H33.5964C32.9348 58.6971 32.3965 58.1647 32.3965 57.5103V51.5419C32.3965 50.8875 32.9348 50.3551 33.5964 50.3551H37.947C38.6085 50.3551 39.1468 50.8875 39.1468 51.5419V57.5103C39.1469 58.1647 38.6086 58.6971 37.947 58.6971ZM33.8029 57.306H37.7406V51.746H33.8029V57.306Z" fill="white"/>
<path d="M58.3963 52.8171V65.9229H57.9683L50.4698 58.5063C50.1387 58.2946 49.9189 57.9272 49.9189 57.5106V51.5413C49.9189 50.8873 50.4573 50.3549 51.1194 50.3549H55.4694C55.8916 50.3549 56.263 50.5723 56.477 50.8987L56.4942 50.9121L56.4826 50.9245L58.3963 52.8171Z" fill="url(#paint12_linear_1_34)"/>
<path d="M55.4698 58.0015H51.1192C50.8448 58.0015 50.6225 57.7816 50.6225 57.5102V51.5418C50.6225 51.2704 50.8448 51.0505 51.1192 51.0505H55.4698C55.7442 51.0505 55.9665 51.2705 55.9665 51.5418V57.5102C55.9666 57.7816 55.7442 58.0015 55.4698 58.0015Z" fill="#503837"/>
<path d="M55.4698 58.6971H51.1192C50.4576 58.6971 49.9193 58.1647 49.9193 57.5103V51.5419C49.9193 50.8875 50.4576 50.3551 51.1192 50.3551H55.4698C56.1314 50.3551 56.6697 50.8875 56.6697 51.5419V57.5103C56.6697 58.1647 56.1314 58.6971 55.4698 58.6971ZM51.3256 57.306H55.2632V51.746H51.3256V57.306Z" fill="white"/>
<path d="M41.5434 65.9226V50.8515C41.5434 50.1867 42.0882 49.6478 42.7602 49.6478H46.1394C46.8114 49.6478 47.3563 50.1867 47.3563 50.8515V65.9226H41.5434Z" fill="#816965"/>
<path d="M48.0759 65.9226H46.6364V51.2619C46.6364 50.7658 46.2261 50.3597 45.7244 50.3597H43.175C42.6713 50.3597 42.263 50.7636 42.263 51.2619V65.9226H40.8236V50.3203C40.8236 49.5558 41.4502 48.936 42.2232 48.936H46.6763C47.4492 48.936 48.0758 49.5558 48.0758 50.3203L48.0759 65.9226Z" fill="#503837"/>
<path d="M43.4187 55.954C43.7812 55.954 44.0749 55.6634 44.0749 55.305C44.0749 54.9464 43.7812 54.6559 43.4187 54.6559C43.0563 54.6559 42.7625 54.9464 42.7625 55.305C42.7625 55.6634 43.0563 55.954 43.4187 55.954Z" fill="white"/>
<path d="M58.3963 62.1244H30.5029V65.9224H58.3963V62.1244Z" fill="#654E48"/>
<path d="M30.1975 64.4385C30.1975 64.9626 30.0973 65.4628 29.9142 65.9225H22.2833C22.1002 65.4628 22 64.9626 22 64.4385C22 63.9281 22.0951 63.4401 22.2694 62.9905C22.8585 61.466 24.351 60.3844 26.0988 60.3844C27.8467 60.3844 29.339 61.466 29.9283 62.9905C30.1024 63.4402 30.1975 63.9282 30.1975 64.4385Z" fill="url(#paint13_linear_1_34)"/>
<path d="M32.8405 64.8461C32.8405 65.2263 32.7678 65.5891 32.6351 65.9226H27.0995C26.9667 65.5892 26.894 65.2263 26.894 64.8461C26.894 64.4758 26.963 64.1219 27.0895 63.7958C27.5169 62.6898 28.5995 61.9052 29.8674 61.9052C31.1354 61.9052 32.2179 62.6898 32.6454 63.7958C32.7715 64.1218 32.8405 64.4758 32.8405 64.8461Z" fill="url(#paint14_linear_1_34)"/>
<path d="M66.8956 64.1926C66.8956 64.8036 66.7787 65.3867 66.5653 65.9226H57.67C57.4568 65.3868 57.3398 64.8036 57.3398 64.1926C57.3398 63.5977 57.4508 63.029 57.6538 62.5048C58.3407 60.7276 60.0802 59.4668 62.1177 59.4668C64.1551 59.4668 65.8947 60.7276 66.5815 62.5048C66.7846 63.029 66.8956 63.5977 66.8956 64.1926Z" fill="url(#paint15_linear_1_34)"/>
<path d="M58.3953 42.149V56.8526L40.4539 39.1058C40.1017 38.8961 39.8649 38.5155 39.8649 38.0802V34.7462C39.8649 32.2472 41.9213 30.2142 44.4478 30.2142C45.8158 30.2142 47.0455 30.8115 47.8862 31.7544L58.3953 42.149Z" fill="url(#paint16_linear_1_34)"/>
<path d="M56.3512 40.7184H32.9058C32.3467 40.7184 31.8919 41.1683 31.8919 41.7213V46.1734H32.5961V41.7213C32.5961 41.5523 32.7351 41.415 32.9058 41.415H34.3082V46.1733H35.0124V41.415H37.1045V46.1733H37.8087V41.415H39.9009V46.1733H40.6051V41.415H42.6972V46.1733H43.4014V41.415H45.4936V46.1733H46.1978V41.415H48.29V46.1733H48.9942V41.415H51.0863V46.1733H51.7905V41.415H53.8826V46.1733H54.5869V41.415H56.3509C56.5216 41.415 56.6606 41.5523 56.6606 41.7213V46.1734H57.3648V41.7213C57.3651 41.1683 56.9103 40.7184 56.3512 40.7184Z" fill="#654E48"/>
<path d="M58.9734 45.4507V47.6839C58.9734 48.0158 58.7014 48.2849 58.3659 48.2849H30.5297C30.1941 48.2849 29.9221 48.0158 29.9221 47.6839V45.4507C29.9221 45.1187 30.1941 44.8497 30.5297 44.8497H58.3659C58.7014 44.8497 58.9734 45.1187 58.9734 45.4507Z" fill="url(#paint17_linear_1_34)"/>
<path d="M63.389 40.5989L45.3796 22.7799C44.8663 22.2721 44.0339 22.2721 43.5206 22.7799L25.5066 40.5974C25.1708 40.9296 25.1708 41.4681 25.5066 41.8003L26.2743 42.5596C26.6101 42.8917 27.1546 42.8917 27.4904 42.5596L44.2052 26.027C44.3404 25.8933 44.5595 25.8933 44.6947 26.027L61.4051 42.561C61.7409 42.8931 62.2854 42.8931 62.6212 42.561L63.3889 41.8017C63.7248 41.4696 63.7248 40.9311 63.389 40.5989Z" fill="url(#paint18_linear_1_34)"/>
<path d="M45.3795 22.7798C45.1229 22.526 44.7866 22.3991 44.45 22.3991V25.9268C44.5386 25.9268 44.6272 25.9603 44.6948 26.0271L61.4052 42.5612C61.741 42.8933 62.2855 42.8933 62.6213 42.5612L63.389 41.8018C63.7248 41.4696 63.7248 40.9311 63.389 40.5989L45.3795 22.7798Z" fill="url(#paint19_linear_1_34)"/>
<path d="M47.8179 38.5557H41.0778C40.8121 38.5557 40.5967 38.3426 40.5967 38.0799V34.7465C40.5967 32.6427 42.321 30.9372 44.4479 30.9372C46.575 30.9372 48.2992 32.6427 48.2992 34.7465V38.0799C48.299 38.3426 48.0836 38.5557 47.8179 38.5557Z" fill="#654E48"/>
<path d="M44.4478 30.214C41.921 30.214 39.8654 32.2472 39.8654 34.7464V38.0797C39.8654 38.741 40.4092 39.2788 41.0778 39.2788H47.8179C48.4864 39.2788 49.0303 38.741 49.0303 38.0797V34.7464C49.0302 32.2471 46.9746 30.214 44.4478 30.214ZM47.5425 34.3608H45.1791V31.7469C46.4244 32.0441 47.3805 33.0817 47.5425 34.3608ZM43.7164 31.7469V34.3608H41.3531C41.5151 33.0817 42.471 32.0441 43.7164 31.7469ZM41.3278 35.8073H43.7164V37.8325H41.3278V35.8073ZM45.1791 37.8325V35.8073H47.5678V37.8325H45.1791Z" fill="white"/>
</g>
</g>
<defs>
<linearGradient id="paint0_linear_1_34" x1="24.2421" y1="24.7863" x2="41.473" y2="30.8471" gradientUnits="userSpaceOnUse">
<stop stop-color="#E2EDF2"/>
<stop offset="1" stop-color="#9FC7E2"/>
</linearGradient>
<linearGradient id="paint1_linear_1_34" x1="25.9037" y1="23.2879" x2="28.4408" y2="24.1806" gradientUnits="userSpaceOnUse">
<stop stop-color="#E2EDF2"/>
<stop offset="1" stop-color="#9FC7E2"/>
</linearGradient>
<linearGradient id="paint2_linear_1_34" x1="31.8909" y1="31.4979" x2="33.6462" y2="33.2716" gradientUnits="userSpaceOnUse">
<stop stop-color="#816965"/>
<stop offset="1" stop-color="#654E48"/>
</linearGradient>
<linearGradient id="paint3_linear_1_34" x1="28.6902" y1="54.2134" x2="28.6902" y2="66.121" gradientUnits="userSpaceOnUse">
<stop stop-color="#FFE7A5"/>
<stop offset="0.966" stop-color="#FFBF5C"/>
</linearGradient>
<linearGradient id="paint4_linear_1_34" x1="28.5867" y1="51.1293" x2="28.5867" y2="55.4601" gradientUnits="userSpaceOnUse">
<stop stop-color="#FF5D00"/>
<stop offset="1" stop-color="#D54003"/>
</linearGradient>
<linearGradient id="paint5_linear_1_34" x1="60.2044" y1="54.2134" x2="60.2044" y2="66.121" gradientUnits="userSpaceOnUse">
<stop stop-color="#FFE7A5"/>
<stop offset="0.966" stop-color="#FFBF5C"/>
</linearGradient>
<linearGradient id="paint6_linear_1_34" x1="59.9579" y1="63.5672" x2="49.1144" y2="53.7976" gradientUnits="userSpaceOnUse">
<stop stop-color="#FF5D00" stop-opacity="0"/>
<stop offset="1" stop-color="#D54003"/>
</linearGradient>
<linearGradient id="paint7_linear_1_34" x1="60.3079" y1="51.1293" x2="60.3079" y2="55.4601" gradientUnits="userSpaceOnUse">
<stop stop-color="#FF5D00"/>
<stop offset="1" stop-color="#D54003"/>
</linearGradient>
<linearGradient id="paint8_linear_1_34" x1="44.449" y1="45.5769" x2="44.449" y2="74.7877" gradientUnits="userSpaceOnUse">
<stop stop-color="#FFE7A5"/>
<stop offset="0.966" stop-color="#FFBF5C"/>
<stop offset="1" stop-color="#DB9E36"/>
</linearGradient>
<linearGradient id="paint9_linear_1_34" x1="41.4349" y1="35.9942" x2="33.4494" y2="27.9207" gradientUnits="userSpaceOnUse">
<stop stop-color="#FF5D00" stop-opacity="0"/>
<stop offset="1" stop-color="#D54003"/>
</linearGradient>
<linearGradient id="paint10_linear_1_34" x1="45.499" y1="53.2513" x2="42.4065" y2="33.8443" gradientUnits="userSpaceOnUse">
<stop stop-color="#FF5D00" stop-opacity="0"/>
<stop offset="1" stop-color="#D54003"/>
</linearGradient>
<linearGradient id="paint11_linear_1_34" x1="41.2052" y1="59.9007" x2="28.7604" y2="47.3185" gradientUnits="userSpaceOnUse">
<stop stop-color="#FF5D00" stop-opacity="0"/>
<stop offset="1" stop-color="#D54003"/>
</linearGradient>
<linearGradient id="paint12_linear_1_34" x1="56.6606" y1="57.8561" x2="48.6925" y2="49.8001" gradientUnits="userSpaceOnUse">
<stop stop-color="#FF5D00" stop-opacity="0"/>
<stop offset="1" stop-color="#D54003"/>
</linearGradient>
<linearGradient id="paint13_linear_1_34" x1="23.7872" y1="61.9147" x2="28.7896" y2="66.9716" gradientUnits="userSpaceOnUse">
<stop stop-color="#9EB644"/>
<stop offset="1" stop-color="#738611"/>
</linearGradient>
<linearGradient id="paint14_linear_1_34" x1="28.1903" y1="63.0149" x2="31.8191" y2="66.6838" gradientUnits="userSpaceOnUse">
<stop stop-color="#9EB644"/>
<stop offset="1" stop-color="#738611"/>
</linearGradient>
<linearGradient id="paint15_linear_1_34" x1="59.4226" y1="61.2504" x2="65.2533" y2="67.1462" gradientUnits="userSpaceOnUse">
<stop stop-color="#9EB644"/>
<stop offset="1" stop-color="#738611"/>
</linearGradient>
<linearGradient id="paint16_linear_1_34" x1="50.8557" y1="42.0629" x2="38.0982" y2="29.1649" gradientUnits="userSpaceOnUse">
<stop stop-color="#FF5D00" stop-opacity="0"/>
<stop offset="1" stop-color="#D54003"/>
</linearGradient>
<linearGradient id="paint17_linear_1_34" x1="44.4473" y1="45.2156" x2="44.4473" y2="49.7729" gradientUnits="userSpaceOnUse">
<stop stop-color="#FF5D00"/>
<stop offset="1" stop-color="#D54003"/>
</linearGradient>
<linearGradient id="paint18_linear_1_34" x1="44.4473" y1="34.4522" x2="44.4473" y2="49.9234" gradientUnits="userSpaceOnUse">
<stop stop-color="#FF5D00"/>
<stop offset="1" stop-color="#D54003"/>
</linearGradient>
<linearGradient id="paint19_linear_1_34" x1="57.9009" y1="37.199" x2="48.5502" y2="27.7455" gradientUnits="userSpaceOnUse">
<stop stop-color="#FF5D00" stop-opacity="0"/>
<stop offset="1" stop-color="#D54003"/>
</linearGradient>
<clipPath id="clip0_1_34">
<rect width="88" height="88" fill="white"/>
</clipPath>
<clipPath id="clip1_1_34">
<rect width="44.95" height="44.46" fill="white" transform="translate(22 22)"/>
</clipPath>
</defs>
</svg>
